<svg width="224" height="32" viewBox="0 0 224 32" fill="none" xmlns="http://www.w3.org/2000/svg">
<circle cx="16" cy="16" r="16" fill="#0D28A6"/>
<path d="M21 7.66699H18.5C17.395 7.66699 16.3352 8.10598 15.5538 8.88738C14.7724 9.66878 14.3334 10.7286 14.3334 11.8337V14.3337H11.8334V17.667H14.3334V24.3337H17.6667V17.667H20.1667L21 14.3337H17.6667V11.8337C17.6667 11.6126 17.7545 11.4007 17.9108 11.2444C18.0671 11.0881 18.279 11.0003 18.5 11.0003H21V7.66699Z" stroke="white" stroke-linecap="round" stroke-linejoin="round"/>
<circle cx="64" cy="16" r="16" fill="#0D28A6"/>
<path d="M68.1666 7.66699H59.8333C57.5321 7.66699 55.6666 9.53247 55.6666 11.8337V20.167C55.6666 22.4682 57.5321 24.3337 59.8333 24.3337H68.1666C70.4678 24.3337 72.3333 22.4682 72.3333 20.167V11.8337C72.3333 9.53247 70.4678 7.66699 68.1666 7.66699Z" stroke="white" stroke-linecap="round" stroke-linejoin="round"/>
<path d="M67.3334 15.4753C67.4362 16.1688 67.3178 16.8771 66.9948 17.4994C66.6719 18.1218 66.161 18.6264 65.5347 18.9416C64.9085 19.2569 64.1987 19.3666 63.5065 19.2552C62.8143 19.1438 62.1748 18.817 61.6791 18.3212C61.1833 17.8254 60.8565 17.186 60.7451 16.4938C60.6337 15.8015 60.7434 15.0918 61.0586 14.4656C61.3739 13.8393 61.8785 13.3284 62.5009 13.0055C63.1232 12.6825 63.8315 12.5641 64.525 12.6669C65.2325 12.7718 65.8874 13.1015 66.3931 13.6072C66.8988 14.1129 67.2285 14.7678 67.3334 15.4753Z" stroke="white" stroke-linecap="round" stroke-linejoin="round"/>
<path d="M68.5834 11.417H68.5917" stroke="white" stroke-linecap="round" stroke-linejoin="round"/>
<circle cx="112" cy="16" r="16" fill="#0D28A6"/>
<path d="M121.167 8.49959C120.369 9.06249 119.485 9.49302 118.55 9.77459C118.048 9.19752 117.381 8.7885 116.639 8.60286C115.897 8.41722 115.116 8.46392 114.402 8.73664C113.687 9.00935 113.074 9.49493 112.644 10.1277C112.215 10.7605 111.99 11.5099 112 12.2746V13.1079C110.536 13.1459 109.084 12.8211 107.776 12.1625C106.467 11.5038 105.342 10.5318 104.5 9.33292C104.5 9.33292 101.167 16.8329 108.667 20.1663C106.95 21.3312 104.906 21.9154 102.833 21.8329C110.333 25.9996 119.5 21.8329 119.5 12.2496C119.499 12.0175 119.477 11.7859 119.433 11.5579C120.284 10.7192 120.884 9.66018 121.167 8.49959V8.49959Z" stroke="white" stroke-linecap="round" stroke-linejoin="round"/>
<circle cx="160" cy="16" r="16" fill="#0D28A6"/>
<path d="M153.333 9.33301H166.667C167.583 9.33301 168.333 10.083 168.333 10.9997V20.9997C168.333 21.9163 167.583 22.6663 166.667 22.6663H153.333C152.417 22.6663 151.667 21.9163 151.667 20.9997V10.9997C151.667 10.083 152.417 9.33301 153.333 9.33301Z" stroke="white" stroke-linecap="round" stroke-linejoin="round"/>
<path d="M168.333 11L160 16.8333L151.667 11" stroke="white" stroke-linecap="round" stroke-linejoin="round"/>
<circle cx="208" cy="16" r="16" fill="#0D28A6"/>
<path d="M211.333 15.167V11.8337M215.5 7.66699H200.5V21.0003H204.667V24.3337L208 21.0003H212.167L215.5 17.667V7.66699ZM207.167 15.167V11.8337V15.167Z" stroke="white" stroke-linecap="round" stroke-linejoin="round"/>
</svg>
